<?xml version="1.0" encoding="utf-8"?>
<!-- Generator: Adobe Illustrator 24.3.0, SVG Export Plug-In . SVG Version: 6.00 Build 0)  -->
<svg version="1.1" id="Layer_1" xmlns="http://www.w3.org/2000/svg" xmlns:xlink="http://www.w3.org/1999/xlink" x="0px" y="0px"
	 width="143px" height="420px" viewBox="0 0 143 420" enable-background="new 0 0 143 420" xml:space="preserve">
<g opacity="0.54">
	<path opacity="0" fill="#FFFFFF" d="M69.4,8.6C20,8.6,5.9,57.6,5.9,79.7c0,2.3,0.4,4.5,1,6.7L53,409.1l26,0.3l52.6-321.4
		c0.9-2.6,1.3-5.4,1.3-8.2C133,57.6,114.2,8.6,69.4,8.6z"/>
	<path opacity="4.761905e-02" fill="#FFFFFF" d="M7.7,82.2c0,2.3,0.4,4.5,0.9,6.6l44.9,320.4l25.3,0.3l51.1-319.2
		c0.8-2.6,1.3-5.4,1.3-8.1c0-22-18.4-69.3-61.8-69.3C21.7,12.9,7.7,60.3,7.7,82.2z"/>
	<path opacity="9.523810e-02" fill="#FFFFFF" d="M9.5,84.8c0,2.3,0.4,4.4,0.9,6.6l43.5,318.2l24.6,0.3l49.6-316.9
		c0.8-2.6,1.3-5.3,1.3-8.1c0-21.8-18.1-67.6-59.9-67.6C23.4,17.2,9.5,62.9,9.5,84.8z"/>
	<path opacity="0.1429" fill="#FFFFFF" d="M11.3,87.3c0,2.2,0.4,4.4,0.9,6.5l42.2,315.9l23.8,0.3l48.1-314.7c0.8-2.6,1.2-5.3,1.2-8
		c0-21.7-17.7-65.8-58.1-65.8C25.1,21.5,11.3,65.6,11.3,87.3z"/>
	<path opacity="0.1905" fill="#FFFFFF" d="M13.1,89.8c0,2.2,0.3,4.4,0.8,6.5l40.9,313.6l23.1,0.3l46.6-312.4c0.8-2.6,1.2-5.2,1.2-8
		c0-21.5-17.4-64.1-56.3-64.1C26.8,25.7,13.1,68.3,13.1,89.8z"/>
	<path opacity="0.2381" fill="#FFFFFF" d="M14.9,92.3c0,2.2,0.3,4.3,0.8,6.4l39.6,311.4l22.3,0.3l45.1-310.2
		c0.7-2.6,1.2-5.2,1.2-7.9C124,71,106.9,30,69.4,30C28.4,30,14.9,71,14.9,92.3z"/>
	<path opacity="0.2857" fill="#FFFFFF" d="M16.7,94.9c0,2.2,0.3,4.3,0.8,6.4l38.3,309.1l21.6,0.3l43.6-308c0.7-2.5,1.1-5.2,1.1-7.9
		c0-21.2-16.7-60.6-52.7-60.6C30.1,34.3,16.7,73.7,16.7,94.9z"/>
	<path opacity="0.3333" fill="#FFFFFF" d="M18.5,97.4c0,2.2,0.3,4.3,0.8,6.4l37,306.9l20.8,0.3l42.1-305.7c0.7-2.5,1.1-5.1,1.1-7.8
		c0-21-16.3-58.8-50.9-58.8C31.8,38.6,18.5,76.4,18.5,97.4z"/>
	<path opacity="0.381" fill="#FFFFFF" d="M20.4,99.9c0,2.2,0.3,4.3,0.7,6.3l35.7,304.6l20.1,0.3l40.6-303.5c0.7-2.5,1-5.1,1-7.7
		c0-20.9-16-57-49.1-57C33.5,42.9,20.4,79,20.4,99.9z"/>
	<path opacity="0.4286" fill="#FFFFFF" d="M22.2,102.5c0,2.1,0.3,4.2,0.7,6.3l34.3,302.3l19.4,0.3l39.1-301.2c0.6-2.5,1-5.1,1-7.7
		c0-20.7-15.6-55.3-47.3-55.3C35.2,47.2,22.2,81.7,22.2,102.5z"/>
	<path opacity="0.4762" fill="#FFFFFF" d="M24,105c0,2.1,0.3,4.2,0.7,6.2l33,300.1l18.6,0.3l37.6-299c0.6-2.5,1-5,1-7.6
		c0-20.6-15.3-53.5-45.5-53.5C36.8,51.5,24,84.4,24,105z"/>
	<path opacity="0.5238" fill="#FFFFFF" d="M25.8,107.5c0,2.1,0.3,4.2,0.7,6.2l31.7,297.8l17.9,0.3l36.1-296.7c0.6-2.4,0.9-5,0.9-7.6
		c0-20.4-14.9-51.8-43.7-51.8C38.5,55.8,25.8,87.1,25.8,107.5z"/>
	<path opacity="0.5714" fill="#FFFFFF" d="M27.6,110c0,2.1,0.2,4.1,0.6,6.1l30.4,295.6l17.1,0.3l34.6-294.5c0.6-2.4,0.9-4.9,0.9-7.5
		c0-20.3-14.6-50-41.8-50C40.2,60,27.6,89.8,27.6,110z"/>
	<path opacity="0.619" fill="#FFFFFF" d="M29.4,112.6c0,2.1,0.2,4.1,0.6,6.1L59.1,412l16.4,0.3L108.6,120c0.5-2.4,0.8-4.9,0.8-7.4
		c0-20.1-14.2-48.2-40-48.2C41.9,64.3,29.4,92.5,29.4,112.6z"/>
	<path opacity="0.6667" fill="#FFFFFF" d="M31.2,115.1c0,2.1,0.2,4.1,0.6,6l27.8,291l15.7,0.3l31.6-290c0.5-2.4,0.8-4.9,0.8-7.4
		c0-19.9-13.9-46.5-38.2-46.5C43.6,68.6,31.2,95.2,31.2,115.1z"/>
	<path opacity="0.7143" fill="#FFFFFF" d="M33,117.6c0,2.1,0.2,4,0.6,6L60,412.4l14.9,0.3L105.1,125c0.5-2.4,0.8-4.8,0.8-7.3
		c0-19.8-13.5-44.7-36.4-44.7C45.2,72.9,33,97.8,33,117.6z"/>
	<path opacity="0.7619" fill="#FFFFFF" d="M34.8,120.2c0,2,0.2,4,0.5,5.9l25.1,286.5l14.2,0.3l28.6-285.5c0.5-2.4,0.7-4.8,0.7-7.3
		c0-19.6-13.2-43-34.6-43C46.9,77.2,34.8,100.5,34.8,120.2z"/>
	<path opacity="0.8095" fill="#FFFFFF" d="M36.6,122.7c0,2,0.2,4,0.5,5.9L61,412.9l13.4,0.3l27.1-283.2c0.4-2.3,0.7-4.8,0.7-7.2
		c0-19.5-12.8-41.2-32.8-41.2C48.6,81.5,36.6,103.2,36.6,122.7z"/>
	<path opacity="0.8571" fill="#FFFFFF" d="M38.5,125.2c0,2,0.2,3.9,0.5,5.9l22.5,282l12.7,0.2l25.6-281c0.4-2.3,0.7-4.7,0.7-7.2
		c0-19.3-12.5-39.4-31-39.4C50.3,85.8,38.5,105.9,38.5,125.2z"/>
	<path opacity="0.9048" fill="#FFFFFF" d="M40.3,127.7c0,2,0.2,3.9,0.4,5.8l21.2,279.8l12,0.2L98,134.9c0.4-2.3,0.6-4.7,0.6-7.1
		c0-19.2-12.1-37.7-29.2-37.7C52,90.1,40.3,108.6,40.3,127.7z"/>
	<path opacity="0.9524" fill="#FFFFFF" d="M42.1,130.3c0,2,0.2,3.9,0.4,5.8l19.9,277.5l11.2,0.2l22.6-276.5c0.4-2.3,0.6-4.6,0.6-7
		c0-19-11.8-35.9-27.4-35.9C53.6,94.4,42.1,111.3,42.1,130.3z"/>
	<path fill="#FFFFFF" d="M43.9,132.8c0,2,0.1,3.8,0.4,5.7l18.6,275.2l10.5,0.2l21.1-274.2c0.4-2.3,0.5-4.6,0.5-7
		c0-18.9-11.4-34.2-25.6-34.2C55.3,98.6,43.9,113.9,43.9,132.8z"/>
</g>
</svg>
